# xmcd
#
# Track frame offsets: 
#        150
#        25140
#        51529
#        66410
#        72880
#        89165
#        127105
#        141590
#        165890
#        182278
#        204389
#        221380
#        239959
#        263407
#        284131
#
# Disc length: 4041 seconds
#
# Revision: 3
# Processed by: cddbd v1.5.2PL0 Copyright (c) Steve Scherf et al.
# Submitted via: ExactAudioCopy v1.0b6
#
DISCID=f10fc70f
DTITLE=Livin' Blues - Blue Breeze
DYEAR=1975
DGENRE=Blues
TTITLE0=Shylina
TTITLE1=Back Stage
TTITLE2=Midnight Blues
TTITLE3=Pisces
TTITLE4=Bus 29
TTITLE5=Blue Breeze
TTITLE6=Pick Up On My Mojo
TTITLE7=That Night
TTITLE8=Black Jack Billy
TTITLE9=Shannon
TTITLE10=Punk Funk
TTITLE11=Roses
TTITLE12=Rock and Roll Hoochie Coo
TTITLE13=Will You Still Love Me
TTITLE14=Doomsday Night
EXTD=
EXTT0=
EXTT1=
EXTT2=
EXTT3=
EXTT4=
EXTT5=
EXTT6=
EXTT7=
EXTT8=
EXTT9=
EXTT10=
EXTT11=
EXTT12=
EXTT13=
EXTT14=
PLAYORDER=
